<svg xmlns="http://www.w3.org/2000/svg" viewBox="0 0 64 64" width="64" height="64">
  <defs>
    <linearGradient id="f" x1="0%" y1="0%" x2="100%" y2="100%">
      <stop offset="0%" stop-color="#d9b88f"/>
      <stop offset="100%" stop-color="#8a5a36"/>
    </linearGradient>
  </defs>
  <rect width="64" height="64" rx="12" fill="#1f1511"/>
  <path fill="url(#f)" d="M16 14h23c5.5 0 10 4.5 10 10v20c0 3.3-2.7 5.5-5.8 4.5-2-.7-4.1-1.1-6.4-1.1H19c-4.4 0-7-2.6-7-7V21c0-4.4 2.6-7 7-7"/>
  <path fill="#f8efe2" d="M22 20h16v4H22zm0 8h16v4H22zm0 8h12v3H22z"/>
</svg>
